<mxfile host="app.diagrams.net" modified="2023-07-12T01:15:32.993Z" agent="Mozilla/5.0 (Windows NT 10.0; Win64; x64) AppleWebKit/537.36 (KHTML, like Gecko) Chrome/114.0.0.0 Whale/3.21.192.18 Safari/537.36" etag="ZwXcGAcRJv9CxgbpNFJG" version="21.6.2" type="github">
  <diagram name="페이지-1" id="6o1ZbYYiDW5aONuJYdsd">
    <mxGraphModel dx="1060" dy="1256" grid="0" gridSize="10" guides="1" tooltips="1" connect="1" arrows="1" fold="1" page="0" pageScale="1" pageWidth="827" pageHeight="1169" math="0" shadow="0">
      <root>
        <mxCell id="0" />
        <mxCell id="1" parent="0" />
        <mxCell id="hJeLzpwojZf5ZV-VchST-1" value="회원" style="rounded=0;whiteSpace=wrap;html=1;fontSize=16;" vertex="1" parent="1">
          <mxGeometry x="-225" y="-414" width="120" height="60" as="geometry" />
        </mxCell>
        <mxCell id="hJeLzpwojZf5ZV-VchST-2" value="상품" style="rounded=0;whiteSpace=wrap;html=1;fontSize=16;" vertex="1" parent="1">
          <mxGeometry x="-225" y="-312" width="120" height="60" as="geometry" />
        </mxCell>
        <mxCell id="hJeLzpwojZf5ZV-VchST-3" value="제조업" style="rounded=0;whiteSpace=wrap;html=1;fontSize=16;" vertex="1" parent="1">
          <mxGeometry x="-225" y="-215" width="120" height="60" as="geometry" />
        </mxCell>
        <mxCell id="hJeLzpwojZf5ZV-VchST-4" value="게시" style="rounded=0;whiteSpace=wrap;html=1;fontSize=16;" vertex="1" parent="1">
          <mxGeometry x="-228" y="-118" width="120" height="60" as="geometry" />
        </mxCell>
      </root>
    </mxGraphModel>
  </diagram>
</mxfile>
